<svg width="38" height="38" viewBox="0 0 38 38" fill="none" xmlns="http://www.w3.org/2000/svg">
<path fill-rule="evenodd" clip-rule="evenodd" d="M7.91659 31.6667H30.0833C30.5032 31.6667 30.9059 31.8335 31.2028 32.1304C31.4998 32.4273 31.6666 32.8301 31.6666 33.25C31.6666 33.6699 31.4998 34.0726 31.2028 34.3696C30.9059 34.6665 30.5032 34.8333 30.0833 34.8333H7.91659C7.49666 34.8333 7.09393 34.6665 6.797 34.3696C6.50007 34.0726 6.33325 33.6699 6.33325 33.25C6.33325 32.8301 6.50007 32.4273 6.797 32.1304C7.09393 31.8335 7.49666 31.6667 7.91659 31.6667ZM6.33325 23.75L22.1666 7.91666L26.9166 12.6667L11.0833 28.5H6.33325V23.75ZM23.7499 6.33332L26.9166 3.16666L31.6666 7.91666L28.4983 11.0849L23.7499 6.33332Z" fill="#FAFAF9"/>
</svg>
